@startuml
skinparam defaultTextAlignment left
caption Behavior of thing LED
[*] --> LED
state LED{
state READY_2{
	READY_2 : ctrl?led_ON / \naction digitalWrite(PIN, DigitalState : HIGH)\n
	READY_2 : ctrl?led_OFF / \naction digitalWrite(PIN, DigitalState : LOW)\n
}
[*] --> READY_2
	LED : entry / setDigitalOutput(PIN)\n
}
@enduml
